<?xml version="1.0" encoding="UTF-8" standalone="no"?>
<!-- Generator: Adobe Illustrator 27.3.1, SVG Export Plug-In . SVG Version: 6.00 Build 0)  -->

<svg
   version="1.1"
   id="Шар_1"
   x="0px"
   y="0px"
   viewBox="0 0 210.45 241"
   style="enable-background:new 0 0 210.45 241;"
   xml:space="preserve"
   sodipodi:docname="calendar.svg"
   inkscape:version="1.2.2 (b0a84865, 2022-12-01)"
   xmlns:inkscape="http://www.inkscape.org/namespaces/inkscape"
   xmlns:sodipodi="http://sodipodi.sourceforge.net/DTD/sodipodi-0.dtd"
   xmlns="http://www.w3.org/2000/svg"
   xmlns:svg="http://www.w3.org/2000/svg"><defs
   id="defs1633" />
<style
   type="text/css"
   id="style1264">
	.st0{opacity:0.8;fill:#545454;enable-background:new    ;}
.st1 { 
    opacity:0.8;
    fill:#bdbdbd;
    enable-background:new;
}
</style>
<sodipodi:namedview
   bordercolor="#000000"
   borderopacity="0.25"
   id="namedview865"
   inkscape:current-layer="Шар_1"
   inkscape:cx="52.801135"
   inkscape:cy="133.60611"
   inkscape:deskcolor="#d1d1d1"
   inkscape:pagecheckerboard="0"
   inkscape:pageopacity="0.0"
   inkscape:showpageshadow="2"
   inkscape:window-height="791"
   inkscape:window-maximized="0"
   inkscape:window-width="1440"
   inkscape:window-x="0"
   inkscape:window-y="25"
   inkscape:zoom="2.3389649"
   pagecolor="#ffffff"
   showgrid="false">
	</sodipodi:namedview>
<rect
   id="rect134"
   x="57.26"
   y="8.04"
   class="st0"
   width="7.54"
   height="7.51" />
<rect
   id="rect136"
   x="47.96"
   y="8.04"
   class="st0"
   width="7.54"
   height="7.51" />
<rect
   id="rect138"
   x="1.47"
   y="16.85"
   class="st0"
   width="7.54"
   height="7.51" />
<rect
   id="rect140"
   x="57.26"
   y="17.25"
   class="st0"
   width="7.54"
   height="7.51" />
<rect
   id="rect142"
   x="47.96"
   y="16.85"
   class="st0"
   width="7.54"
   height="7.51" />
<rect
   id="rect144"
   x="38.66"
   y="16.85"
   class="st0"
   width="7.54"
   height="7.51" />
<rect
   id="rect146"
   x="29.36"
   y="16.85"
   class="st0"
   width="7.54"
   height="7.51" />
<rect
   id="rect148"
   x="20.06"
   y="16.85"
   class="st0"
   width="7.54"
   height="7.51" />
<rect
   id="rect150"
   x="11.02"
   y="16.85"
   class="st0"
   width="7.54"
   height="7.51" />
<rect
   id="rect152"
   x="1.47"
   y="26.26"
   class="st0"
   width="7.54"
   height="7.51" />
<rect
   id="rect154"
   x="57.26"
   y="26.51"
   class="st0"
   width="7.54"
   height="7.51" />
<rect
   id="rect156"
   x="47.96"
   y="26.24"
   class="st0"
   width="7.54"
   height="7.51" />
<rect
   id="rect158"
   x="38.66"
   y="26.24"
   class="st0"
   width="7.54"
   height="7.51" />
<rect
   id="rect160"
   x="29.36"
   y="26.24"
   class="st0"
   width="7.54"
   height="7.51" />
<rect
   id="rect162"
   x="20.06"
   y="26.26"
   class="st0"
   width="7.54"
   height="7.51" />
<rect
   id="rect164"
   x="11.02"
   y="26.26"
   class="st0"
   width="7.54"
   height="7.51" />
<rect
   id="rect166"
   x="1.47"
   y="35.67"
   class="st0"
   width="7.54"
   height="7.51" />
<rect
   id="rect168"
   x="57.26"
   y="35.76"
   class="st0"
   width="7.54"
   height="7.51" />
<rect
   id="rect170"
   x="47.96"
   y="35.63"
   class="st0"
   width="7.54"
   height="7.51" />
<rect
   id="rect172"
   x="38.66"
   y="35.63"
   class="st0"
   width="7.54"
   height="7.51" />
<rect
   id="rect174"
   x="29.36"
   y="35.63"
   class="st0"
   width="7.54"
   height="7.51" />
<rect
   id="rect176"
   x="20.06"
   y="35.67"
   class="st0"
   width="7.54"
   height="7.51" />
<rect
   id="rect178"
   x="11.02"
   y="35.67"
   class="st0"
   width="7.54"
   height="7.51" />
<rect
   id="rect180"
   x="1.47"
   y="45.08"
   class="st0"
   width="7.54"
   height="7.51" />
<rect
   id="rect182"
   x="57.26"
   y="45.01"
   class="st0"
   width="7.54"
   height="7.51" />
<rect
   id="rect184"
   x="47.96"
   y="45.01"
   class="st0"
   width="7.54"
   height="7.51" />
<rect
   id="rect186"
   x="38.66"
   y="45.01"
   class="st0"
   width="7.54"
   height="7.51" />
<rect
   id="rect188"
   x="29.36"
   y="45.01"
   class="st0"
   width="7.54"
   height="7.51" />
<rect
   id="rect190"
   x="20.06"
   y="45.08"
   class="st0"
   width="7.54"
   height="7.51" />
<rect
   id="rect192"
   x="11.02"
   y="45.08"
   class="st0"
   width="7.54"
   height="7.51" />
<rect
   id="rect194"
   x="1.47"
   y="54.49"
   class="st0"
   width="7.54"
   height="7.51" />
<rect
   id="rect196"
   x="82.92"
   y="8.04"
   class="st0"
   width="7.54"
   height="7.51" />
<rect
   id="rect198"
   x="92.22"
   y="8.04"
   class="st0"
   width="7.54"
   height="7.51" />
<rect
   id="rect200"
   x="101.52"
   y="8.04"
   class="st0"
   width="7.54"
   height="7.51" />
<rect
   id="rect202"
   x="110.82"
   y="8.04"
   class="st0"
   width="7.54"
   height="7.51" />
<rect
   id="rect204"
   x="120.12"
   y="8.04"
   class="st0"
   width="7.54"
   height="7.51" />
<rect
   id="rect206"
   x="129.42"
   y="8.04"
   class="st0"
   width="7.54"
   height="7.51" />
<rect
   id="rect208"
   x="73.62"
   y="16.9"
   class="st0"
   width="7.54"
   height="7.51" />
<rect
   id="rect210"
   x="129.42"
   y="16.9"
   class="st0"
   width="7.54"
   height="7.51" />
<rect
   id="rect212"
   x="120.12"
   y="16.9"
   class="st0"
   width="7.54"
   height="7.51" />
<rect
   id="rect214"
   x="110.82"
   y="16.9"
   class="st0"
   width="7.54"
   height="7.51" />
<rect
   id="rect216"
   x="101.52"
   y="16.9"
   class="st0"
   width="7.54"
   height="7.51" />
<rect
   id="rect218"
   x="92.22"
   y="16.9"
   class="st0"
   width="7.54"
   height="7.51" />
<rect
   id="rect220"
   x="82.92"
   y="16.9"
   class="st0"
   width="7.54"
   height="7.51" />
<rect
   id="rect222"
   x="73.62"
   y="26.31"
   class="st0"
   width="7.54"
   height="7.51" />
<rect
   id="rect224"
   x="129.42"
   y="26.55"
   class="st0"
   width="7.54"
   height="7.51" />
<rect
   id="rect226"
   x="120.12"
   y="26.28"
   class="st0"
   width="7.54"
   height="7.51" />
<rect
   id="rect228"
   x="110.82"
   y="26.28"
   class="st0"
   width="7.54"
   height="7.51" />
<rect
   id="rect230"
   x="101.52"
   y="26.28"
   class="st0"
   width="7.54"
   height="7.51" />
<rect
   id="rect232"
   x="92.22"
   y="26.31"
   class="st0"
   width="7.54"
   height="7.51" />
<rect
   id="rect234"
   x="82.92"
   y="26.31"
   class="st0"
   width="7.54"
   height="7.51" />
<rect
   id="rect236"
   x="73.62"
   y="35.71"
   class="st0"
   width="7.54"
   height="7.51" />
<rect
   id="rect238"
   x="129.42"
   y="35.8"
   class="st0"
   width="7.54"
   height="7.51" />
<rect
   id="rect240"
   x="120.12"
   y="35.67"
   class="st0"
   width="7.54"
   height="7.51" />
<rect
   id="rect242"
   x="110.82"
   y="35.67"
   class="st0"
   width="7.54"
   height="7.51" />
<rect
   id="rect244"
   x="101.52"
   y="35.67"
   class="st1"
   width="7.54"
   height="7.51"
   data-date="2022-02-24"
   style="" />
<rect
   id="rect246"
   x="92.22"
   y="35.71"
   class="st0"
   width="7.54"
   height="7.51" />
<rect
   id="rect248"
   x="82.92"
   y="35.71"
   class="st0"
   width="7.54"
   height="7.51" />
<rect
   id="rect250"
   x="73.62"
   y="45.12"
   class="st0"
   width="7.54"
   height="7.51" />
<rect
   id="rect252"
   x="201.63"
   y="8.04"
   class="st0"
   width="7.54"
   height="7.51" />
<rect
   id="rect254"
   x="145.83"
   y="16.9"
   class="st0"
   width="7.54"
   height="7.51" />
<rect
   id="rect256"
   x="201.63"
   y="16.9"
   class="st0"
   width="7.54"
   height="7.51" />
<rect
   id="rect258"
   x="192.33"
   y="16.9"
   class="st1"
   width="7.54"
   height="7.51"
   data-date="2022-03-12"
   style="" />
<rect
   id="rect260"
   x="183.03"
   y="16.9"
   class="st0"
   width="7.54"
   height="7.51" />
<rect
   id="rect262"
   x="173.73"
   y="16.9"
   class="st0"
   width="7.54"
   height="7.51" />
<rect
   id="rect264"
   x="164.43"
   y="16.9"
   class="st0"
   width="7.54"
   height="7.51" />
<rect
   id="rect266"
   x="155.13"
   y="16.9"
   class="st0"
   width="7.54"
   height="7.51" />
<rect
   id="rect268"
   x="145.83"
   y="26.55"
   class="st0"
   width="7.54"
   height="7.51" />
<rect
   id="rect270"
   x="201.63"
   y="26.55"
   class="st0"
   width="7.54"
   height="7.51" />
<rect
   id="rect272"
   x="192.33"
   y="26.55"
   class="st0"
   width="7.54"
   height="7.51" />
<rect
   id="rect274"
   x="183.03"
   y="26.55"
   class="st0"
   width="7.54"
   height="7.51" />
<rect
   id="rect276"
   x="173.73"
   y="26.55"
   class="st1"
   width="7.54"
   height="7.51"
   data-date="2022-03-17"
   style="" />
<rect
   id="rect278"
   x="164.43"
   y="26.55"
   class="st1"
   width="7.54"
   height="7.51"
   data-date="2022-03-16"
   style="" />
<rect
   id="rect280"
   x="155.13"
   y="26.55"
   class="st0"
   width="7.54"
   height="7.51" />
<rect
   id="rect282"
   x="145.83"
   y="35.8"
   class="st0"
   width="7.54"
   height="7.51" />
<rect
   id="rect284"
   x="201.63"
   y="35.8"
   class="st0"
   width="7.54"
   height="7.51" />
<rect
   id="rect286"
   x="192.33"
   y="35.8"
   class="st0"
   width="7.54"
   height="7.51" />
<rect
   id="rect288"
   x="183.03"
   y="35.8"
   class="st0"
   width="7.54"
   height="7.51" />
<rect
   id="rect290"
   x="173.73"
   y="35.8"
   class="st0"
   width="7.54"
   height="7.51" />
<rect
   id="rect292"
   x="164.43"
   y="35.8"
   class="st0"
   width="7.54"
   height="7.51" />
<rect
   id="rect294"
   x="155.13"
   y="35.8"
   class="st0"
   width="7.54"
   height="7.51" />
<rect
   id="rect296"
   x="145.83"
   y="45.06"
   class="st0"
   width="7.54"
   height="7.51" />
<rect
   id="rect298"
   x="173.73"
   y="45.06"
   class="st0"
   width="7.54"
   height="7.51" />
<rect
   id="rect300"
   x="164.43"
   y="45.06"
   class="st0"
   width="7.54"
   height="7.51" />
<rect
   id="rect302"
   x="155.13"
   y="45.06"
   class="st0"
   width="7.54"
   height="7.51" />
<rect
   id="rect304"
   x="192.33"
   y="8.04"
   class="st0"
   width="7.54"
   height="7.51" />
<rect
   id="rect306"
   x="183.03"
   y="8.04"
   class="st0"
   width="7.54"
   height="7.51" />
<rect
   id="rect308"
   x="173.73"
   y="8.04"
   class="st0"
   width="7.54"
   height="7.51" />
<rect
   id="rect310"
   x="164.43"
   y="8.04"
   class="st0"
   width="7.54"
   height="7.51" />
<rect
   id="rect312"
   x="155.13"
   y="8.04"
   class="st0"
   width="7.54"
   height="7.51" />
<rect
   id="rect314"
   x="57.26"
   y="64.11"
   class="st0"
   width="7.54"
   height="7.51" />
<rect
   id="rect316"
   x="47.96"
   y="64.11"
   class="st0"
   width="7.54"
   height="7.51" />
<rect
   id="rect318"
   x="1.47"
   y="73.19"
   class="st0"
   width="7.54"
   height="7.51" />
<rect
   id="rect320"
   x="57.26"
   y="73.59"
   class="st0"
   width="7.54"
   height="7.51" />
<rect
   id="rect322"
   x="47.96"
   y="73.19"
   class="st0"
   width="7.54"
   height="7.51" />
<rect
   id="rect324"
   x="38.66"
   y="73.19"
   class="st0"
   width="7.54"
   height="7.51" />
<rect
   id="rect326"
   x="29.36"
   y="73.19"
   class="st0"
   width="7.54"
   height="7.51" />
<rect
   id="rect328"
   x="20.06"
   y="73.19"
   class="st0"
   width="7.54"
   height="7.51" />
<rect
   id="rect330"
   x="11.02"
   y="73.19"
   class="st0"
   width="7.54"
   height="7.51" />
<rect
   id="rect332"
   x="1.47"
   y="82.6"
   class="st0"
   width="7.54"
   height="7.51" />
<rect
   id="rect334"
   x="57.26"
   y="82.84"
   class="st0"
   width="7.54"
   height="7.51" />
<rect
   id="rect336"
   x="47.96"
   y="82.58"
   class="st0"
   width="7.54"
   height="7.51" />
<rect
   id="rect338"
   x="38.66"
   y="82.58"
   class="st0"
   width="7.54"
   height="7.51" />
<rect
   id="rect340"
   x="29.36"
   y="82.58"
   class="st0"
   width="7.54"
   height="7.51" />
<rect
   id="rect342"
   x="20.06"
   y="82.6"
   class="st0"
   width="7.54"
   height="7.51" />
<rect
   id="rect344"
   x="11.02"
   y="82.6"
   class="st0"
   width="7.54"
   height="7.51" />
<rect
   id="rect346"
   x="1.47"
   y="92.01"
   class="st0"
   width="7.54"
   height="7.51" />
<rect
   id="rect348"
   x="57.26"
   y="92.1"
   class="st0"
   width="7.54"
   height="7.51" />
<rect
   id="rect350"
   x="47.96"
   y="91.96"
   class="st0"
   width="7.54"
   height="7.51" />
<rect
   id="rect352"
   x="38.66"
   y="91.96"
   class="st0"
   width="7.54"
   height="7.51" />
<rect
   id="rect354"
   x="29.36"
   y="91.96"
   class="st0"
   width="7.54"
   height="7.51" />
<rect
   id="rect356"
   x="20.06"
   y="92.01"
   class="st0"
   width="7.54"
   height="7.51" />
<rect
   id="rect358"
   x="11.02"
   y="92.01"
   class="st0"
   width="7.54"
   height="7.51" />
<rect
   id="rect360"
   x="1.47"
   y="101.42"
   class="st0"
   width="7.54"
   height="7.51" />
<rect
   id="rect362"
   x="47.96"
   y="101.35"
   class="st0"
   width="7.54"
   height="7.51" />
<rect
   id="rect364"
   x="38.66"
   y="101.35"
   class="st0"
   width="7.54"
   height="7.51" />
<rect
   id="rect366"
   x="29.36"
   y="101.35"
   class="st0"
   width="7.54"
   height="7.51" />
<rect
   id="rect368"
   x="20.06"
   y="101.42"
   class="st0"
   width="7.54"
   height="7.51" />
<rect
   id="rect370"
   x="11.02"
   y="101.42"
   class="st0"
   width="7.54"
   height="7.51" />
<rect
   id="rect372"
   x="38.66"
   y="64.11"
   class="st0"
   width="7.54"
   height="7.51" />
<rect
   id="rect374"
   x="129.42"
   y="64.11"
   class="st0"
   width="7.54"
   height="7.51" />
<rect
   id="rect376"
   x="73.62"
   y="72.97"
   class="st1"
   width="7.54"
   height="7.51"
   data-date="2022-05-02"
   style="" />
<rect
   id="rect378"
   x="129.42"
   y="73.36"
   class="st0"
   width="7.54"
   height="7.51" />
<rect
   id="rect380"
   x="120.12"
   y="72.97"
   class="st0"
   width="7.54"
   height="7.51" />
<rect
   id="rect382"
   x="110.82"
   y="72.97"
   class="st0"
   width="7.54"
   height="7.51" />
<rect
   id="rect384"
   x="101.52"
   y="72.97"
   class="st0"
   width="7.54"
   height="7.51" />
<rect
   id="rect386"
   x="92.22"
   y="72.97"
   class="st1"
   width="7.54"
   height="7.51"
   data-date="2022-05-04"
   style="" />
<rect
   id="rect388"
   x="82.92"
   y="72.97"
   class="st0"
   width="7.54"
   height="7.51" />
<rect
   id="rect390"
   x="73.62"
   y="82.37"
   class="st0"
   width="7.54"
   height="7.51" />
<rect
   id="rect392"
   x="129.42"
   y="82.62"
   class="st0"
   width="7.54"
   height="7.51" />
<rect
   id="rect394"
   x="120.12"
   y="82.35"
   class="st0"
   width="7.54"
   height="7.51" />
<rect
   id="rect396"
   x="110.82"
   y="82.35"
   class="st0"
   width="7.54"
   height="7.51" />
<rect
   id="rect398"
   x="101.52"
   y="82.35"
   class="st1"
   width="7.54"
   height="7.51"
   data-date="2022-05-12"
   style="" />
<rect
   id="rect400"
   x="92.22"
   y="82.37"
   class="st0"
   width="7.54"
   height="7.51" />
<rect
   id="rect402"
   x="82.92"
   y="82.37"
   class="st0"
   width="7.54"
   height="7.51" />
<rect
   id="rect404"
   x="73.62"
   y="91.78"
   class="st0"
   width="7.54"
   height="7.51" />
<rect
   id="rect406"
   x="129.42"
   y="91.87"
   class="st0"
   width="7.54"
   height="7.51" />
<rect
   id="rect408"
   x="129.42"
   y="100.87"
   class="st0"
   width="7.54"
   height="7.51" />
<rect
   id="rect410"
   x="120.12"
   y="91.74"
   class="st0"
   width="7.54"
   height="7.51" />
<rect
   id="rect412"
   x="110.82"
   y="91.74"
   class="st0"
   width="7.54"
   height="7.51" />
<rect
   id="rect414"
   x="101.52"
   y="91.74"
   class="st0"
   width="7.54"
   height="7.51" />
<rect
   id="rect416"
   x="92.22"
   y="91.78"
   class="st0"
   width="7.54"
   height="7.51" />
<rect
   id="rect418"
   x="82.92"
   y="91.78"
   class="st0"
   width="7.54"
   height="7.51" />
<rect
   id="rect420"
   x="73.62"
   y="101.19"
   class="st0"
   width="7.54"
   height="7.51" />
<rect
   id="rect422"
   x="120.12"
   y="101.12"
   class="st0"
   width="7.54"
   height="7.51" />
<rect
   id="rect424"
   x="110.82"
   y="101.12"
   class="st0"
   width="7.54"
   height="7.51" />
<rect
   id="rect426"
   x="101.52"
   y="101.12"
   class="st0"
   width="7.54"
   height="7.51" />
<rect
   id="rect428"
   x="92.22"
   y="101.19"
   class="st0"
   width="7.54"
   height="7.51" />
<rect
   id="rect430"
   x="82.92"
   y="101.19"
   class="st0"
   width="7.54"
   height="7.51" />
<rect
   id="rect432"
   x="73.62"
   y="110.19"
   class="st1"
   width="7.54"
   height="7.51"
   data-date="2022-05-30"
   style="" />
<rect
   id="rect434"
   x="82.92"
   y="110.19"
   class="st0"
   width="7.54"
   height="7.51" />
<rect
   id="rect436"
   x="164.43"
   y="64.11"
   class="st0"
   width="7.54"
   height="7.51" />
<rect
   id="rect438"
   x="173.73"
   y="64.11"
   class="st0"
   width="7.54"
   height="7.51" />
<rect
   id="rect440"
   x="183.03"
   y="64.11"
   class="st0"
   width="7.54"
   height="7.51" />
<rect
   id="rect442"
   x="192.33"
   y="64.11"
   class="st0"
   width="7.54"
   height="7.51" />
<rect
   id="rect444"
   x="201.63"
   y="64.11"
   class="st0"
   width="7.54"
   height="7.51" />
<rect
   id="rect446"
   x="145.83"
   y="72.97"
   class="st0"
   width="7.54"
   height="7.51" />
<rect
   id="rect448"
   x="201.63"
   y="72.97"
   class="st0"
   width="7.54"
   height="7.51" />
<rect
   id="rect450"
   x="192.33"
   y="72.97"
   class="st0"
   width="7.54"
   height="7.51" />
<rect
   id="rect452"
   x="183.03"
   y="72.97"
   class="st0"
   width="7.54"
   height="7.51" />
<rect
   id="rect454"
   x="173.73"
   y="72.97"
   class="st0"
   width="7.54"
   height="7.51" />
<rect
   id="rect456"
   x="164.43"
   y="72.97"
   class="st0"
   width="7.54"
   height="7.51" />
<rect
   id="rect458"
   x="155.13"
   y="72.97"
   class="st0"
   width="7.54"
   height="7.51" />
<rect
   id="rect460"
   x="145.83"
   y="82.37"
   class="st0"
   width="7.54"
   height="7.51" />
<rect
   id="rect462"
   x="201.63"
   y="82.62"
   class="st0"
   width="7.54"
   height="7.51" />
<rect
   id="rect464"
   x="192.33"
   y="82.35"
   class="st0"
   width="7.54"
   height="7.51" />
<rect
   id="rect466"
   x="183.03"
   y="82.35"
   class="st0"
   width="7.54"
   height="7.51" />
<rect
   id="rect468"
   x="173.73"
   y="82.35"
   class="st0"
   width="7.54"
   height="7.51" />
<rect
   id="rect470"
   x="164.43"
   y="82.37"
   class="st0"
   width="7.54"
   height="7.51" />
<rect
   id="rect472"
   x="155.13"
   y="82.37"
   class="st0"
   width="7.54"
   height="7.51" />
<rect
   id="rect474"
   x="145.83"
   y="91.78"
   class="st0"
   width="7.54"
   height="7.51" />
<rect
   id="rect476"
   x="201.63"
   y="91.87"
   class="st0"
   width="7.54"
   height="7.51" />
<rect
   id="rect478"
   x="192.33"
   y="91.74"
   class="st0"
   width="7.54"
   height="7.51" />
<rect
   id="rect480"
   x="183.03"
   y="91.74"
   class="st0"
   width="7.54"
   height="7.51" />
<rect
   id="rect482"
   x="173.73"
   y="91.74"
   class="st0"
   width="7.54"
   height="7.51" />
<rect
   id="rect484"
   x="164.43"
   y="91.78"
   class="st0"
   width="7.54"
   height="7.51" />
<rect
   id="rect486"
   x="155.13"
   y="91.78"
   class="st1"
   width="7.54"
   height="7.51"
   data-date="2022-06-21"
   style="" />
<rect
   id="rect488"
   x="173.73"
   y="100.74"
   class="st0"
   width="7.54"
   height="7.51" />
<rect
   id="rect490"
   x="164.43"
   y="100.78"
   class="st0"
   width="7.54"
   height="7.51" />
<rect
   id="rect492"
   x="155.13"
   y="100.78"
   class="st0"
   width="7.54"
   height="7.51" />
<rect
   id="rect494"
   x="145.83"
   y="101.19"
   class="st0"
   width="7.54"
   height="7.51" />
<rect
   id="rect496"
   x="57.26"
   y="180.63"
   class="st0"
   width="7.54"
   height="7.51" />
<rect
   id="rect498"
   x="47.96"
   y="180.63"
   class="st0"
   width="7.54"
   height="7.51" />
<rect
   id="rect500"
   x="1.47"
   y="189.85"
   class="st0"
   width="7.54"
   height="7.51" />
<rect
   id="rect502"
   x="57.26"
   y="190.25"
   class="st0"
   width="7.54"
   height="7.51" />
<rect
   id="rect504"
   x="47.96"
   y="189.85"
   class="st0"
   width="7.54"
   height="7.51" />
<rect
   id="rect506"
   x="38.66"
   y="189.85"
   class="st0"
   width="7.54"
   height="7.51" />
<rect
   id="rect508"
   x="29.36"
   y="189.85"
   class="st0"
   width="7.54"
   height="7.51" />
<rect
   id="rect510"
   x="20.06"
   y="189.85"
   class="st1"
   width="7.54"
   height="7.51"
   data-date="2022-10-05"
   style="" />
<rect
   id="rect512"
   x="11.02"
   y="189.85"
   class="st0"
   width="7.54"
   height="7.51" />
<rect
   id="rect514"
   x="1.47"
   y="199.26"
   class="st0"
   width="7.54"
   height="7.51" />
<rect
   id="rect516"
   x="57.26"
   y="199.51"
   class="st0"
   width="7.54"
   height="7.51" />
<rect
   id="rect518"
   x="47.96"
   y="199.24"
   class="st0"
   width="7.54"
   height="7.51" />
<rect
   id="rect520"
   x="38.66"
   y="199.24"
   class="st0"
   width="7.54"
   height="7.51" />
<rect
   id="rect522"
   x="29.36"
   y="199.24"
   class="st0"
   width="7.54"
   height="7.51" />
<rect
   id="rect524"
   x="20.06"
   y="199.26"
   class="st0"
   width="7.54"
   height="7.51" />
<rect
   id="rect526"
   x="11.02"
   y="199.26"
   class="st0"
   width="7.54"
   height="7.51" />
<rect
   id="rect528"
   x="1.47"
   y="208.67"
   class="st0"
   width="7.54"
   height="7.51" />
<rect
   id="rect530"
   x="57.26"
   y="208.76"
   class="st0"
   width="7.54"
   height="7.51" />
<rect
   id="rect532"
   x="47.96"
   y="208.63"
   class="st1"
   width="7.54"
   height="7.51"
   data-date="2022-10-22"
   style="" />
<rect
   id="rect534"
   x="38.66"
   y="208.63"
   class="st0"
   width="7.54"
   height="7.51" />
<rect
   id="rect536"
   x="29.36"
   y="208.63"
   class="st0"
   width="7.54"
   height="7.51" />
<rect
   id="rect538"
   x="20.06"
   y="208.67"
   class="st0"
   width="7.54"
   height="7.51" />
<rect
   id="rect540"
   x="11.02"
   y="208.67"
   class="st0"
   width="7.54"
   height="7.51" />
<rect
   id="rect542"
   x="1.47"
   y="218.08"
   class="st0"
   width="7.54"
   height="7.51" />
<rect
   id="rect544"
   x="1.47"
   y="227.08"
   class="st0"
   width="7.54"
   height="7.51" />
<rect
   id="rect546"
   x="47.96"
   y="218.01"
   class="st0"
   width="7.54"
   height="7.51" />
<rect
   id="rect548"
   x="57.26"
   y="218.01"
   class="st0"
   width="7.54"
   height="7.51" />
<rect
   id="rect550"
   x="38.66"
   y="218.01"
   class="st0"
   width="7.54"
   height="7.51" />
<rect
   id="rect552"
   x="29.36"
   y="218.01"
   class="st0"
   width="7.54"
   height="7.51" />
<rect
   id="rect554"
   x="20.06"
   y="218.08"
   class="st0"
   width="7.54"
   height="7.51" />
<rect
   id="rect556"
   x="11.02"
   y="218.08"
   class="st0"
   width="7.54"
   height="7.51" />
<rect
   id="rect558"
   x="129.42"
   y="180.63"
   class="st0"
   width="7.54"
   height="7.51" />
<rect
   id="rect560"
   x="73.62"
   y="189.63"
   class="st0"
   width="7.54"
   height="7.51" />
<rect
   id="rect562"
   x="129.42"
   y="190.03"
   class="st0"
   width="7.54"
   height="7.51" />
<rect
   id="rect564"
   x="120.12"
   y="189.63"
   class="st0"
   width="7.54"
   height="7.51" />
<rect
   id="rect566"
   x="110.82"
   y="189.63"
   class="st0"
   width="7.54"
   height="7.51" />
<rect
   id="rect568"
   x="101.52"
   y="189.63"
   class="st1"
   width="7.54"
   height="7.51"
   data-date="2022-11-10"
   style="" />
<rect
   id="rect570"
   x="92.22"
   y="189.63"
   class="st0"
   width="7.54"
   height="7.51" />
<rect
   id="rect572"
   x="82.92"
   y="189.63"
   class="st0"
   width="7.54"
   height="7.51" />
<rect
   id="rect574"
   x="120.12"
   y="180.63"
   class="st0"
   width="7.54"
   height="7.51" />
<rect
   id="rect576"
   x="110.82"
   y="180.63"
   class="st0"
   width="7.54"
   height="7.51" />
<rect
   id="rect578"
   x="101.52"
   y="180.63"
   class="st0"
   width="7.54"
   height="7.51" />
<rect
   id="rect580"
   x="92.22"
   y="180.63"
   class="st0"
   width="7.54"
   height="7.51" />
<rect
   id="rect582"
   x="82.92"
   y="180.63"
   class="st0"
   width="7.54"
   height="7.51" />
<rect
   id="rect584"
   x="73.62"
   y="199.04"
   class="st0"
   width="7.54"
   height="7.51" />
<rect
   id="rect586"
   x="129.42"
   y="199.28"
   class="st0"
   width="7.54"
   height="7.51" />
<rect
   id="rect588"
   x="120.12"
   y="199.02"
   class="st0"
   width="7.54"
   height="7.51" />
<rect
   id="rect590"
   x="110.82"
   y="199.02"
   class="st0"
   width="7.54"
   height="7.51" />
<rect
   id="rect592"
   x="101.52"
   y="199.02"
   class="st0"
   width="7.54"
   height="7.51" />
<rect
   id="rect594"
   x="92.22"
   y="199.04"
   class="st0"
   width="7.54"
   height="7.51" />
<rect
   id="rect596"
   x="82.92"
   y="199.04"
   class="st0"
   width="7.54"
   height="7.51" />
<rect
   id="rect598"
   x="73.62"
   y="208.45"
   class="st0"
   width="7.54"
   height="7.51" />
<rect
   id="rect600"
   x="129.42"
   y="208.54"
   class="st0"
   width="7.54"
   height="7.51" />
<rect
   id="rect602"
   x="120.12"
   y="208.4"
   class="st0"
   width="7.54"
   height="7.51" />
<rect
   id="rect604"
   x="110.82"
   y="208.4"
   class="st0"
   width="7.54"
   height="7.51" />
<rect
   id="rect606"
   x="101.52"
   y="208.4"
   class="st1"
   width="7.54"
   height="7.51"
   data-date="2022-11-24"
   style="" />
<rect
   id="rect608"
   x="92.22"
   y="208.45"
   class="st0"
   width="7.54"
   height="7.51" />
<rect
   id="rect610"
   x="82.92"
   y="208.45"
   class="st0"
   width="7.54"
   height="7.51" />
<rect
   id="rect612"
   x="73.62"
   y="217.86"
   class="st0"
   width="7.54"
   height="7.51" />
<rect
   id="rect614"
   x="92.22"
   y="217.86"
   class="st0"
   width="7.54"
   height="7.51" />
<rect
   id="rect616"
   x="82.92"
   y="217.86"
   class="st0"
   width="7.54"
   height="7.51" />
<rect
   id="rect618"
   x="173.73"
   y="180.63"
   class="st0"
   width="7.54"
   height="7.51" />
<rect
   id="rect620"
   x="183.03"
   y="180.63"
   class="st0"
   width="7.54"
   height="7.51" />
<rect
   id="rect622"
   x="192.33"
   y="180.63"
   class="st0"
   width="7.54"
   height="7.51" />
<rect
   id="rect624"
   x="201.63"
   y="180.63"
   class="st0"
   width="7.54"
   height="7.51" />
<rect
   id="rect626"
   x="145.83"
   y="189.63"
   class="st0"
   width="7.54"
   height="7.51" />
<rect
   id="rect628"
   x="201.63"
   y="189.63"
   class="st0"
   width="7.54"
   height="7.51" />
<rect
   id="rect630"
   x="192.33"
   y="189.63"
   class="st0"
   width="7.54"
   height="7.51" />
<rect
   id="rect632"
   x="183.03"
   y="189.63"
   class="st0"
   width="7.54"
   height="7.51" />
<rect
   id="rect634"
   x="173.73"
   y="189.63"
   class="st0"
   width="7.54"
   height="7.51" />
<rect
   id="rect636"
   x="164.43"
   y="189.63"
   class="st0"
   width="7.54"
   height="7.51" />
<rect
   id="rect638"
   x="155.13"
   y="189.63"
   class="st0"
   width="7.54"
   height="7.51" />
<rect
   id="rect640"
   x="145.83"
   y="199.04"
   class="st0"
   width="7.54"
   height="7.51" />
<rect
   id="rect642"
   x="201.63"
   y="199.28"
   class="st0"
   width="7.54"
   height="7.51" />
<rect
   id="rect644"
   x="192.33"
   y="199.02"
   class="st0"
   width="7.54"
   height="7.51" />
<rect
   id="rect646"
   x="183.03"
   y="199.02"
   class="st0"
   width="7.54"
   height="7.51" />
<rect
   id="rect648"
   x="173.73"
   y="199.02"
   class="st0"
   width="7.54"
   height="7.51" />
<rect
   id="rect650"
   x="164.43"
   y="199.04"
   class="st0"
   width="7.54"
   height="7.51" />
<rect
   id="rect652"
   x="155.13"
   y="199.04"
   class="st0"
   width="7.54"
   height="7.51" />
<rect
   id="rect654"
   x="145.83"
   y="208.45"
   class="st0"
   width="7.54"
   height="7.51" />
<rect
   id="rect656"
   x="201.63"
   y="208.54"
   class="st0"
   width="7.54"
   height="7.51" />
<rect
   id="rect658"
   x="192.33"
   y="208.4"
   class="st0"
   width="7.54"
   height="7.51" />
<rect
   id="rect660"
   x="183.03"
   y="208.4"
   class="st0"
   width="7.54"
   height="7.51" />
<rect
   id="rect662"
   x="192.33"
   y="217.4"
   class="st0"
   width="7.54"
   height="7.51" />
<rect
   id="rect664"
   x="183.03"
   y="217.4"
   class="st0"
   width="7.54"
   height="7.51" />
<rect
   id="rect666"
   x="173.73"
   y="208.4"
   class="st1"
   width="7.54"
   height="7.51"
   data-date="2022-12-22"
   style="" />
<rect
   id="rect668"
   x="164.43"
   y="208.45"
   class="st0"
   width="7.54"
   height="7.51" />
<rect
   id="rect670"
   x="155.13"
   y="208.45"
   class="st1"
   width="7.54"
   height="7.51"
   data-date="2022-12-20"
   style="" />
<rect
   id="rect672"
   x="173.73"
   y="217.4"
   class="st0"
   width="7.54"
   height="7.51" />
<rect
   id="rect674"
   x="164.43"
   y="217.45"
   class="st0"
   width="7.54"
   height="7.51" />
<rect
   id="rect676"
   x="155.13"
   y="217.45"
   class="st0"
   width="7.54"
   height="7.51" />
<rect
   id="rect678"
   x="145.83"
   y="217.86"
   class="st0"
   width="7.54"
   height="7.51" />
<rect
   id="rect680"
   x="57.26"
   y="125.91"
   class="st0"
   width="7.54"
   height="7.51" />
<rect
   id="rect682"
   x="47.96"
   y="125.91"
   class="st0"
   width="7.54"
   height="7.51" />
<rect
   id="rect684"
   x="1.47"
   y="135.14"
   class="st0"
   width="7.54"
   height="7.51" />
<rect
   id="rect686"
   x="57.26"
   y="135.54"
   class="st0"
   width="7.54"
   height="7.51" />
<rect
   id="rect688"
   x="47.96"
   y="135.14"
   class="st0"
   width="7.54"
   height="7.51" />
<rect
   id="rect690"
   x="38.66"
   y="135.14"
   class="st0"
   width="7.54"
   height="7.51" />
<rect
   id="rect692"
   x="29.36"
   y="135.14"
   class="st0"
   width="7.54"
   height="7.51" />
<rect
   id="rect694"
   x="20.06"
   y="135.14"
   class="st0"
   width="7.54"
   height="7.51" />
<rect
   id="rect696"
   x="11.02"
   y="135.14"
   class="st0"
   width="7.54"
   height="7.51" />
<rect
   id="rect698"
   x="1.47"
   y="144.55"
   class="st0"
   width="7.54"
   height="7.51" />
<rect
   id="rect700"
   x="57.26"
   y="144.79"
   class="st0"
   width="7.54"
   height="7.51" />
<rect
   id="rect702"
   x="47.96"
   y="144.52"
   class="st0"
   width="7.54"
   height="7.51" />
<rect
   id="rect704"
   x="38.66"
   y="144.52"
   class="st0"
   width="7.54"
   height="7.51" />
<rect
   id="rect706"
   x="29.36"
   y="144.52"
   class="st1"
   width="7.54"
   height="7.51"
   data-date="2022-07-14"
   style="" />
<rect
   id="rect708"
   x="20.06"
   y="144.55"
   class="st0"
   width="7.54"
   height="7.51" />
<rect
   id="rect710"
   x="11.02"
   y="144.55"
   class="st0"
   width="7.54"
   height="7.51" />
<rect
   id="rect712"
   x="1.47"
   y="153.95"
   class="st0"
   width="7.54"
   height="7.51" />
<rect
   id="rect714"
   x="57.26"
   y="154.04"
   class="st0"
   width="7.54"
   height="7.51" />
<rect
   id="rect716"
   x="47.96"
   y="153.91"
   class="st0"
   width="7.54"
   height="7.51" />
<rect
   id="rect718"
   x="38.66"
   y="153.91"
   class="st0"
   width="7.54"
   height="7.51" />
<rect
   id="rect720"
   x="29.36"
   y="153.91"
   class="st0"
   width="7.54"
   height="7.51" />
<rect
   id="rect722"
   x="20.06"
   y="153.95"
   class="st0"
   width="7.54"
   height="7.51" />
<rect
   id="rect724"
   x="11.02"
   y="153.95"
   class="st0"
   width="7.54"
   height="7.51" />
<rect
   id="rect726"
   x="1.47"
   y="163.36"
   class="st0"
   width="7.54"
   height="7.51" />
<rect
   id="rect728"
   x="47.96"
   y="163.3"
   class="st0"
   width="7.54"
   height="7.51" />
<rect
   id="rect730"
   x="57.26"
   y="163.3"
   class="st0"
   width="7.54"
   height="7.51" />
<rect
   id="rect732"
   x="38.66"
   y="163.3"
   class="st0"
   width="7.54"
   height="7.51" />
<rect
   id="rect734"
   x="29.36"
   y="163.3"
   class="st0"
   width="7.54"
   height="7.51" />
<rect
   id="rect736"
   x="20.06"
   y="163.36"
   class="st0"
   width="7.54"
   height="7.51" />
<rect
   id="rect738"
   x="11.02"
   y="163.36"
   class="st1"
   width="7.54"
   height="7.51"
   data-date="2022-07-26"
   style="" />
<rect
   id="rect740"
   x="38.66"
   y="125.91"
   class="st0"
   width="7.54"
   height="7.51" />
<rect
   id="rect742"
   x="129.42"
   y="125.91"
   class="st0"
   width="7.54"
   height="7.51" />
<rect
   id="rect744"
   x="73.62"
   y="134.91"
   class="st0"
   width="7.54"
   height="7.51" />
<rect
   id="rect746"
   x="129.42"
   y="135.31"
   class="st0"
   width="7.54"
   height="7.51" />
<rect
   id="rect748"
   x="120.12"
   y="134.91"
   class="st0"
   width="7.54"
   height="7.51" />
<rect
   id="rect750"
   x="110.82"
   y="134.91"
   class="st1"
   width="7.54"
   height="7.51"
   data-date="2022-08-12"
   style="" />
<rect
   id="rect752"
   x="101.52"
   y="134.91"
   class="st0"
   width="7.54"
   height="7.51" />
<rect
   id="rect754"
   x="92.22"
   y="134.91"
   class="st0"
   width="7.54"
   height="7.51" />
<rect
   id="rect756"
   x="82.92"
   y="134.91"
   class="st0"
   width="7.54"
   height="7.51" />
<rect
   id="rect758"
   x="73.62"
   y="125.91"
   class="st0"
   width="7.54"
   height="7.51" />
<rect
   id="rect760"
   x="120.12"
   y="125.91"
   class="st0"
   width="7.54"
   height="7.51" />
<rect
   id="rect762"
   x="110.82"
   y="125.91"
   class="st0"
   width="7.54"
   height="7.51" />
<rect
   id="rect764"
   x="101.52"
   y="125.91"
   class="st0"
   width="7.54"
   height="7.51" />
<rect
   id="rect766"
   x="92.22"
   y="125.91"
   class="st0"
   width="7.54"
   height="7.51" />
<rect
   id="rect768"
   x="82.92"
   y="125.91"
   class="st0"
   width="7.54"
   height="7.51" />
<rect
   id="rect770"
   x="73.62"
   y="144.32"
   class="st0"
   width="7.54"
   height="7.51" />
<rect
   id="rect772"
   x="129.42"
   y="144.56"
   class="st0"
   width="7.54"
   height="7.51" />
<rect
   id="rect774"
   x="120.12"
   y="144.3"
   class="st0"
   width="7.54"
   height="7.51" />
<rect
   id="rect776"
   x="110.82"
   y="144.3"
   class="st0"
   width="7.54"
   height="7.51" />
<rect
   id="rect778"
   x="101.52"
   y="144.3"
   class="st0"
   width="7.54"
   height="7.51" />
<rect
   id="rect780"
   x="92.22"
   y="144.32"
   class="st0"
   width="7.54"
   height="7.51" />
<rect
   id="rect782"
   x="82.92"
   y="144.32"
   class="st0"
   width="7.54"
   height="7.51" />
<rect
   id="rect784"
   x="73.62"
   y="153.73"
   class="st0"
   width="7.54"
   height="7.51" />
<rect
   id="rect786"
   x="129.42"
   y="153.82"
   class="st0"
   width="7.54"
   height="7.51" />
<rect
   id="rect788"
   x="120.12"
   y="153.68"
   class="st0"
   width="7.54"
   height="7.51" />
<rect
   id="rect790"
   x="110.82"
   y="153.68"
   class="st0"
   width="7.54"
   height="7.51" />
<rect
   id="rect792"
   x="101.52"
   y="153.68"
   class="st1"
   width="7.54"
   height="7.51"
   data-date="2022-08-25"
   style="" />
<rect
   id="rect794"
   x="92.22"
   y="153.73"
   class="st0"
   width="7.54"
   height="7.51" />
<rect
   id="rect796"
   x="82.92"
   y="153.73"
   class="st0"
   width="7.54"
   height="7.51" />
<rect
   id="rect798"
   x="73.62"
   y="163.14"
   class="st0"
   width="7.54"
   height="7.51" />
<rect
   id="rect800"
   x="92.22"
   y="163.14"
   class="st0"
   width="7.54"
   height="7.51" />
<rect
   id="rect802"
   x="82.92"
   y="163.14"
   class="st0"
   width="7.54"
   height="7.51" />
<rect
   id="rect804"
   x="173.73"
   y="125.91"
   class="st0"
   width="7.54"
   height="7.51" />
<rect
   id="rect806"
   x="183.03"
   y="125.91"
   class="st0"
   width="7.54"
   height="7.51" />
<rect
   id="rect808"
   x="192.33"
   y="125.91"
   class="st0"
   width="7.54"
   height="7.51" />
<rect
   id="rect810"
   x="201.63"
   y="125.91"
   class="st0"
   width="7.54"
   height="7.51" />
<rect
   id="rect812"
   x="145.83"
   y="134.91"
   class="st0"
   width="7.54"
   height="7.51" />
<rect
   id="rect814"
   x="201.63"
   y="134.91"
   class="st0"
   width="7.54"
   height="7.51" />
<rect
   id="rect816"
   x="192.33"
   y="134.91"
   class="st0"
   width="7.54"
   height="7.51" />
<rect
   id="rect818"
   x="183.03"
   y="134.91"
   class="st0"
   width="7.54"
   height="7.51" />
<rect
   id="rect820"
   x="173.73"
   y="134.91"
   class="st0"
   width="7.54"
   height="7.51" />
<rect
   id="rect822"
   x="164.43"
   y="134.91"
   class="st0"
   width="7.54"
   height="7.51" />
<rect
   id="rect824"
   x="155.13"
   y="134.91"
   class="st0"
   width="7.54"
   height="7.51" />
<rect
   id="rect826"
   x="145.83"
   y="144.32"
   class="st0"
   width="7.54"
   height="7.51" />
<rect
   id="rect828"
   x="201.63"
   y="144.56"
   class="st0"
   width="7.54"
   height="7.51" />
<rect
   id="rect830"
   x="192.33"
   y="144.3"
   class="st0"
   width="7.54"
   height="7.51" />
<rect
   id="rect832"
   x="183.03"
   y="144.3"
   class="st0"
   width="7.54"
   height="7.51" />
<rect
   id="rect834"
   x="173.73"
   y="144.3"
   class="st0"
   width="7.54"
   height="7.51" />
<rect
   id="rect836"
   x="164.43"
   y="144.32"
   class="st0"
   width="7.54"
   height="7.51" />
<rect
   id="rect838"
   x="155.13"
   y="144.32"
   class="st0"
   width="7.54"
   height="7.51" />
<rect
   id="rect840"
   x="145.83"
   y="153.73"
   class="st0"
   width="7.54"
   height="7.51" />
<rect
   id="rect842"
   x="201.63"
   y="153.82"
   class="st0"
   width="7.54"
   height="7.51" />
<rect
   id="rect844"
   x="192.33"
   y="153.68"
   class="st0"
   width="7.54"
   height="7.51" />
<rect
   id="rect846"
   x="183.03"
   y="153.68"
   class="st0"
   width="7.54"
   height="7.51" />
<rect
   id="rect848"
   x="173.73"
   y="153.68"
   class="st0"
   width="7.54"
   height="7.51" />
<rect
   id="rect850"
   x="164.43"
   y="153.73"
   class="st0"
   width="7.54"
   height="7.51" />
<rect
   id="rect852"
   x="155.13"
   y="153.73"
   class="st0"
   width="7.54"
   height="7.51" />
<rect
   id="rect854"
   x="173.73"
   y="162.68"
   class="st0"
   width="7.54"
   height="7.51" />
<rect
   id="rect856"
   x="183.03"
   y="162.68"
   class="st0"
   width="7.54"
   height="7.51" />
<rect
   id="rect858"
   x="164.43"
   y="162.73"
   class="st0"
   width="7.54"
   height="7.51" />
<rect
   id="rect860"
   x="155.13"
   y="162.73"
   class="st0"
   width="7.54"
   height="7.51" />
<rect
   id="rect862"
   x="145.83"
   y="163.14"
   class="st0"
   width="7.54"
   height="7.51" />
</svg>
